<svg xmlns="http://www.w3.org/2000/svg" width="24" height="24" viewBox="0 0 24 24" fill="none">
<path fill-rule="evenodd" clip-rule="evenodd" d="M12 2C6.5 2 2 6.5 2 12C2 17.5 6.5 22 12 22C17.5 22 22 17.5 22 12C22 6.5 17.5 2 12 2ZM12 20C7.59 20 4 16.41 4 12C4 7.59 7.59 4 12 4C16.41 4 20 7.59 20 12C20 16.41 16.41 20 12 20ZM11.75 7C12.1642 7 12.5 7.33579 12.5 7.75V11.6338C12.5 11.9851 12.6843 12.3106 12.9855 12.4913L16.3419 14.5051C16.7041 14.7225 16.8192 15.1938 16.5978 15.5537C16.3781 15.9106 15.9106 16.0219 15.5537 15.8022L11.4759 13.2929C11.1802 13.1109 11 12.7885 11 12.4412V7.75C11 7.33579 11.3358 7 11.75 7Z" fill="black"/>
</svg>