<svg width="22" height="22" viewBox="0 0 22 22" fill="none" xmlns="http://www.w3.org/2000/svg">
<path d="M10.1093 6.06383V1.5C7.45393 1.83191 5.96031 2.74468 5.54542 3.15957V6.06383H2.64117C2.30925 6.39574 1.67308 8.96808 1.39648 10.2128H5.96031L10.1093 6.06383Z" stroke="#2F6CE5" stroke-width="1.2"/>
<path d="M16.3327 10.2128H20.8965C20.5646 7.55745 19.6518 6.06383 19.2369 5.64894L16.3327 5.64894V2.74468C16.0007 2.41277 13.4284 1.7766 12.1837 1.5V6.06383L16.3327 10.2128Z" stroke="#2F6CE5" stroke-width="1.2"/>
<path d="M12.1837 16.4362L12.1837 21C14.839 20.6681 16.3327 19.7553 16.7475 19.3404V16.4362H19.6518C19.9837 16.1043 20.6199 13.5319 20.8965 12.2872L16.3327 12.2872L12.1837 16.4362Z" stroke="#2F6CE5" stroke-width="1.2"/>
<path d="M5.96031 12.2872H1.39648C1.7284 14.9426 2.64117 16.4362 3.05606 16.8511H5.96031V19.7553C6.29223 20.0872 8.86457 20.7234 10.1093 21V16.4362L5.96031 12.2872Z" stroke="#2F6CE5" stroke-width="1.2"/>
<circle cx="10.9384" cy="11.0429" r="2.30426" stroke="#2F6CE5" stroke-width="1.2"/>
</svg>
