<svg width="20" height="20" viewBox="0 0 20 20" fill="none" xmlns="http://www.w3.org/2000/svg">
<path d="M13.9452 1.72266H5.31507C2.93192 1.72266 1 3.65458 1 6.03773V14.6679C1 17.051 2.93192 18.9829 5.31507 18.9829H13.9452C16.3284 18.9829 18.2603 17.051 18.2603 14.6679V6.03773C18.2603 3.65458 16.3284 1.72266 13.9452 1.72266Z" stroke="#2F6CE5" stroke-width="1.5" stroke-linecap="round" stroke-linejoin="round"/>
<path d="M13.0777 9.80874C13.1842 10.527 13.0615 11.2605 12.7271 11.905C12.3927 12.5495 11.8636 13.0721 11.215 13.3986C10.5664 13.725 9.83144 13.8387 9.11457 13.7233C8.3977 13.608 7.73545 13.2695 7.22203 12.7561C6.7086 12.2426 6.37014 11.5804 6.25478 10.8635C6.13943 10.1467 6.25306 9.41166 6.5795 8.76309C6.90594 8.11451 7.42859 7.58539 8.07308 7.25097C8.71758 6.91655 9.45112 6.79387 10.1694 6.90038C10.902 7.00902 11.5803 7.35041 12.104 7.87412C12.6277 8.39784 12.9691 9.0761 13.0777 9.80874Z" stroke="#2F6CE5" stroke-width="1.5" stroke-linecap="round" stroke-linejoin="round"/>
<circle cx="14.5594" cy="5.30648" r="0.715661" fill="#2F6CE5"/>
</svg>
