<svg xmlns="http://www.w3.org/2000/svg" width="24" height="24" viewBox="0 0 24 24" fill="none">
<path d="M12 2C8.13 2 5 5.13 5 9C5 13.2076 9.49633 19.0211 11.2818 21.1637C11.661 21.6188 12.339 21.6188 12.7182 21.1637C14.5037 19.0211 19 13.2076 19 9C19 5.13 15.87 2 12 2ZM7 9C7 6.24 9.24 4 12 4C14.76 4 17 6.24 17 9C17 11.5407 14.7586 15.1944 12.7749 17.8668C12.388 18.3881 11.6147 18.3859 11.23 17.863C9.26788 15.1961 7 11.5117 7 9Z" fill="#08090A"/>
<path d="M12 11.5C13.3807 11.5 14.5 10.3807 14.5 9C14.5 7.61929 13.3807 6.5 12 6.5C10.6193 6.5 9.5 7.61929 9.5 9C9.5 10.3807 10.6193 11.5 12 11.5Z" fill="#08090A"/>
</svg>